sfk_cyclingleg_states
version=1
nRows=4
nColumns=53
inDegrees=yes

# SIMM Motion File Header:
name sfk_cyclingleg_states
datacolumns 53
datarows 4
otherdata 1
range 0.55235522 0.55360133
endheader
time	/jointset/bb/crank_angle/value	/jointset/bb/crank_angle/speed	/jointset/spindle/pedal_angle_r/value	/jointset/spindle/pedal_angle_r/speed	/jointset/ground_pelvis/pelvis_tilt/value	/jointset/ground_pelvis/pelvis_tilt/speed	/jointset/ground_pelvis/pelvis_list/value	/jointset/ground_pelvis/pelvis_list/speed	/jointset/ground_pelvis/pelvis_rotation/value	/jointset/ground_pelvis/pelvis_rotation/speed	/jointset/ground_pelvis/pelvis_tx/value	/jointset/ground_pelvis/pelvis_tx/speed	/jointset/ground_pelvis/pelvis_ty/value	/jointset/ground_pelvis/pelvis_ty/speed	/jointset/ground_pelvis/pelvis_tz/value	/jointset/ground_pelvis/pelvis_tz/speed	/jointset/hip_r/hip_angle_r/value	/jointset/hip_r/hip_angle_r/speed	/jointset/hip_r/hip_adduction_r/value	/jointset/hip_r/hip_adduction_r/speed	/jointset/hip_r/hip_rotation_r/value	/jointset/hip_r/hip_rotation_r/speed	/jointset/knee_r/knee_angle_r/value	/jointset/knee_r/knee_angle_r/speed	/jointset/knee_r/tib_tx_r/value	/jointset/knee_r/tib_tx_r/speed	/jointset/knee_r/tib_ty_r/value	/jointset/knee_r/tib_ty_r/speed	/jointset/tib_pat_r/pat_angle_r/value	/jointset/tib_pat_r/pat_angle_r/speed	/jointset/tib_pat_r/pat_tx_r/value	/jointset/tib_pat_r/pat_tx_r/speed	/jointset/tib_pat_r/pat_ty_r/value	/jointset/tib_pat_r/pat_ty_r/speed	/jointset/ankle_r/ankle_angle_r/value	/jointset/ankle_r/ankle_angle_r/speed	/jointset/subtalar_r/subtalar_angle_r/value	/jointset/subtalar_r/subtalar_angle_r/speed	/jointset/mtp_r/mtp_angle_r/value	/jointset/mtp_r/mtp_angle_r/speed	/forceset/bifemlh_r/activation	/forceset/bifemlh_r/fiber_length	/forceset/bifemsh_r/activation	/forceset/bifemsh_r/fiber_length	/forceset/glut_max2_r/activation	/forceset/glut_max2_r/fiber_length	/forceset/vas_int_r/activation	/forceset/vas_int_r/fiber_length	/forceset/med_gas_r/activation	/forceset/med_gas_r/fiber_length	/forceset/tib_ant_r/activation	/forceset/tib_ant_r/fiber_length
      0.55235522	   -275.34195975	   -480.13863232	    249.24840225	    422.37729245	      0.00000000	      0.00000000	     -0.00000000	     -0.00000000	     -0.00000000	     -0.00000000	     -0.00000000	     -0.00000000	     -0.00000000	     -0.00000000	     -0.00000000	     -0.00000000	     51.17025924	    145.23082903	      4.21561325	     -2.04121906	     -2.45039517	    -20.86824596	   -100.83961053	   -245.19713834	      0.00192135	     -0.05329944	     -0.48968661	     -0.08424834	     17.60996813	      1.00800568	      0.02839073	     -0.10411632	     -0.02322108	     -0.01435596	     24.15585511	     43.76555787	     -0.00000000	     -0.00000000	      0.00000000	      0.00000000	     -0.04567364	      0.11186922	     -0.04567364	      0.14821959	     -0.04567364	      0.13816377	     -0.04567364	      0.15393882	      0.05000000	      0.10000000	      0.05000000	      0.10000000
      0.55278478	   -275.54820705	   -480.13863232	    249.42999439	    423.10691255	      0.00000000	      0.00000000	     -0.00000000	     -0.00000000	     -0.00000000	     -0.00000000	     -0.00000000	     -0.00000000	     -0.00000000	     -0.00000000	     -0.00000000	     -0.00000000	     51.23268470	    145.41895259	      4.21473618	     -2.04236535	     -2.45935623	    -20.85397369	   -100.94484637	   -244.77538115	      0.00189844	     -0.05341185	     -0.48972276	     -0.08408428	     17.61040039	      1.00459355	      0.02834602	     -0.10404404	     -0.02322725	     -0.01437633	     24.17468098	     43.88662229	     -0.00000000	     -0.00000000	      0.00000000	      0.00000000	     -0.04572894	      0.11191687	     -0.04572894	      0.14819035	     -0.04572894	      0.13820698	     -0.04572894	      0.15394472	      0.05000000	      0.10000000	      0.05000000	      0.10000000
      0.55308095	   -275.69040832	   -480.13863232	    249.55537930	    423.61053697	      0.00000000	      0.00000000	     -0.00000000	     -0.00000000	     -0.00000000	     -0.00000000	     -0.00000000	     -0.00000000	     -0.00000000	     -0.00000000	     -0.00000000	     -0.00000000	     51.27577219	    145.54848171	      4.21413118	     -2.04312413	     -2.46553102	    -20.84403477	   -101.01729757	   -244.48336184	      0.00188261	     -0.05348856	     -0.48974765	     -0.08397067	     17.61069757	      1.00220316	      0.02831521	     -0.10399343	     -0.02323151	     -0.01439008	     24.18769106	     43.96959891	     -0.00000000	     -0.00000000	      0.00000000	      0.00000000	     -0.04576707	      0.11194985	     -0.04576707	      0.14817028	     -0.04576707	      0.13823679	     -0.04576707	      0.15396666	      0.05000000	      0.10000000	      0.05000000	      0.10000000
      0.55360133	   -275.94026638	   -480.13863232	    249.77605133	    424.49656515	      0.00000000	      0.00000000	     -0.00000000	     -0.00000000	     -0.00000000	     -0.00000000	     -0.00000000	     -0.00000000	     -0.00000000	     -0.00000000	     -0.00000000	     -0.00000000	     51.35157292	    145.77571904	      4.21306763	     -2.04439476	     -2.47637341	    -20.82637444	   -101.14438961	   -243.96782571	      0.00185474	     -0.05362173	     -0.48979130	     -0.08377009	     17.61121799	      0.99792903	      0.02826112	     -0.10390297	     -0.02323901	     -0.01441370	     24.21061001	     44.11441025	     -0.00000000	     -0.00000000	      0.00000000	      0.00000000	     -0.04583407	      0.11200808	     -0.04583407	      0.14813521	     -0.04583407	      0.13828920	     -0.04583407	      0.15402856	      0.05000000	      0.10000000	      0.05000000	      0.10000000
